<svg t="1701952123572" class="icon" viewBox="0 0 1024 1024" version="1.1" xmlns="http://www.w3.org/2000/svg" p-id="18461" width="32" height="32"><path d="M0 0m146.285714 0l731.428572 0q146.285714 0 146.285714 146.285714l0 731.428572q0 146.285714-146.285714 146.285714l-731.428572 0q-146.285714 0-146.285714-146.285714l0-731.428572q0-146.285714 146.285714-146.285714Z" fill="#13C2C2" p-id="18462" data-spm-anchor-id="a313x.search_index.0.i8.56a43a81JMtAoy" class=""></path><path d="M371.309714 540.16c-23.625143 37.668571-57.490286 64-87.149714 79.433143 0 0 23.369143 135.826286 25.782857 147.675428a222.427429 222.427429 0 0 0 129.901714-69.376c16.749714-60.233143-3.913143-126.902857-68.534857-157.696z" fill="#FFFFFF" opacity=".7" p-id="18463"></path><path d="M251.794286 512.914286L193.060571 257.060571c134.656 8.886857 244.589714 97.170286 285.988572 182.747429 41.362286 85.577143 24.064 192-41.398857 260.425143 16.128-68.864-19.565714-128.658286-61.44-153.965714-41.801143-25.270857-79.908571-34.011429-124.416-33.353143z" fill="#FFFFFF" p-id="18464"></path><path d="M650.861714 540.16c23.588571 37.668571 57.490286 64 87.149715 79.433143 0 0-23.369143 135.826286-25.782858 147.675428a222.427429 222.427429 0 0 1-129.901714-69.376c-16.749714-60.233143 3.913143-126.902857 68.534857-157.696z" fill="#FFFFFF" opacity=".7" p-id="18465"></path><path d="M770.377143 512.914286l58.733714-255.853715c-134.656 8.886857-244.589714 97.170286-285.988571 182.747429-41.362286 85.577143-24.100571 192 41.398857 260.425143-16.128-68.864 19.565714-128.658286 61.44-153.965714 41.801143-25.270857 79.908571-34.011429 124.416-33.353143z" fill="#FFFFFF" p-id="18466"></path></svg>
