<?xml version="1.0" encoding="UTF-8"?>
<svg width="28px" height="28px" viewBox="0 0 28 28" version="1.1" xmlns="http://www.w3.org/2000/svg" xmlns:xlink="http://www.w3.org/1999/xlink">
    <title>logo</title>
    <g id="节点总览&amp;资源看板" stroke="none" stroke-width="1" fill="none" fill-rule="evenodd">
        <g id="画板" transform="translate(-3619.000000, -1694.000000)"></g>
        <g id="画板" transform="translate(-256.000000, -115.000000)">
            <rect id="矩形" fill="#F5F5F5" x="0" y="-25" width="1440" height="2827"></rect>
            <rect id="矩形" fill="#FFFFFF" x="210" y="63" width="1230" height="361"></rect>
            <g id="logo" transform="translate(256.000000, 115.000000)">
                <rect id="Rectangle-2" fill="#F57F17" x="0" y="0" width="28" height="28" rx="4"></rect>
                <g id="Group-3-Copy" transform="translate(5.250000, 7.000000)" fill="#FFFFFF">
                    <g id="Group-2">
                        <path d="M4.90267927,7.7709073 C4.25741202,8.80070947 3.33129294,9.52012471 2.52025585,9.94176819 C2.52025585,9.94176819 3.15882055,13.6561284 3.22466839,13.9798678 C4.19301351,13.8411027 5.60615748,13.3487685 6.77676826,12.0828808 C7.2350614,10.4364909 6.66963585,8.61209437 4.90267927,7.7709073 Z" id="Path-6-Copy" opacity="0.699999988"></path>
                        <path d="M1.63459971,7.0245614 C1.63459971,7.0245614 0.0291595024,0.0285558883 0.0291595024,0.0285558883 C3.71060337,0.271620356 6.71663666,2.68627808 7.84840427,5.0259598 C8.98017188,7.36564152 8.507493,10.2765827 6.71663666,12.1470907 C7.15811696,10.2637173 6.18186051,8.62939116 5.03771217,7.93750284 C3.89356383,7.24561452 2.85195507,7.0076923 1.63459971,7.0245614 Z" id="Path-5"></path>
                    </g>
                    <g id="Group-2" transform="translate(12.949863, 7.000000) scale(-1, 1) translate(-12.949863, -7.000000) translate(8.449863, 0.000000)">
                        <path d="M4.90267927,7.7709073 C4.25741202,8.80070947 3.33129294,9.52012471 2.52025585,9.94176819 C2.52025585,9.94176819 3.15882055,13.6561284 3.22466839,13.9798678 C4.19301351,13.8411027 5.60615748,13.3487685 6.77676826,12.0828808 C7.2350614,10.4364909 6.66963585,8.61209437 4.90267927,7.7709073 Z" id="Path-6-Copy" opacity="0.699999988"></path>
                        <path d="M1.63459971,7.0245614 C1.63459971,7.0245614 0.0291595024,0.0285558883 0.0291595024,0.0285558883 C3.71060337,0.271620356 6.71663666,2.68627808 7.84840427,5.0259598 C8.98017188,7.36564152 8.507493,10.2765827 6.71663666,12.1470907 C7.15811696,10.2637173 6.18186051,8.62939116 5.03771217,7.93750284 C3.89356383,7.24561452 2.85195507,7.0076923 1.63459971,7.0245614 Z" id="Path-5"></path>
                    </g>
                </g>
            </g>
        </g>
    </g>
</svg>