<?xml version="1.0" standalone="no"?><!DOCTYPE svg PUBLIC "-//W3C//DTD SVG 1.1//EN" "http://www.w3.org/Graphics/SVG/1.1/DTD/svg11.dtd"><svg t="1709711253856" class="icon" viewBox="0 0 1069 1024" version="1.1" xmlns="http://www.w3.org/2000/svg" p-id="11401" xmlns:xlink="http://www.w3.org/1999/xlink" width="16.703125" height="16"><path d="M269.346388 0.078989h102.620582v543.654076H269.346388z m231.09215 0h173.906635a415.443629 415.443629 0 0 1 99.878811 10.183722 149.034853 149.034853 0 0 1 64.627466 32.117892 119.919853 119.919853 0 0 1 34.467982 56.402152 292.455603 292.455603 0 0 1 10.183721 82.253138 277.767542 277.767542 0 0 1-11.750448 86.953318 129.059091 129.059091 0 0 1-37.209753 57.577197 152.233586 152.233586 0 0 1-65.280268 32.117892 401.081969 401.081969 0 0 1-95.178632 9.79204H603.320241v176.256725H500.438538z m161.633945 284.36085a273.654885 273.654885 0 0 0 55.227107-4.70018 79.446087 79.446087 0 0 0 35.773587-16.711748 64.496905 64.496905 0 0 0 19.584081-31.334529 174.820559 174.820559 0 0 0 5.875224-49.351883 97.528721 97.528721 0 0 0-26.112108-77.552959 142.833227 142.833227 0 0 0-90.347891-21.673049h-58.752242v201.324348z" fill="#4081F1" p-id="11402"></path><path d="M217.709695 877.054116a25.002343 25.002343 0 0 0 0-35.316626L118.810089 742.837884h435.027709a25.002343 25.002343 0 1 0 0-50.004686H118.810089l98.834326-98.834326a25.067623 25.067623 0 0 0-35.381905-35.447186L40.669607 700.144588a25.002343 25.002343 0 0 0 0 35.381906l141.592903 141.527622a25.002343 25.002343 0 0 0 35.447185 0z" fill="#4081F1" p-id="11403"></path><path d="M851.646382 877.119396a25.002343 25.002343 0 0 1 0-35.447186l98.769047-98.834326H515.38772a25.002343 25.002343 0 1 1 0-50.004686h435.027709l-98.834327-98.834326a25.067623 25.067623 0 1 1 35.381906-35.447186l141.658182 141.658182a25.002343 25.002343 0 0 1 0 35.251345l-141.658182 141.658183a25.002343 25.002343 0 0 1-35.316626 0z" fill="#4081F1" p-id="11404"></path></svg>