<?xml version="1.0" standalone="no"?><!DOCTYPE svg PUBLIC "-//W3C//DTD SVG 1.1//EN" "http://www.w3.org/Graphics/SVG/1.1/DTD/svg11.dtd"><svg t="1709711280223" class="icon" viewBox="0 0 1024 1024" version="1.1" xmlns="http://www.w3.org/2000/svg" p-id="15147" xmlns:xlink="http://www.w3.org/1999/xlink" width="16" height="16"><path d="M345.6 307.2H179.2c-14.08 0-25.6 11.52-25.6 25.6v422.4c0 14.08 11.52 25.6 25.6 25.6h166.4c14.08 0 25.6-11.52 25.6-25.6V332.8c0-14.08-11.52-25.6-25.6-25.6z m-83.2 64c17.92 0 32 14.08 32 32S280.32 435.2 262.4 435.2 230.4 421.12 230.4 403.2s14.08-32 32-32z m0 102.4c17.92 0 32 14.08 32 32S280.32 537.6 262.4 537.6 230.4 523.52 230.4 505.6s14.08-32 32-32zM320 729.6h-115.2v-38.4h115.2v38.4z m0-64h-115.2v-38.4h115.2v38.4zM588.8 243.2H422.4c-14.08 0-25.6 11.52-25.6 25.6v486.4c0 14.08 11.52 25.6 25.6 25.6h166.4c14.08 0 25.6-11.52 25.6-25.6V268.8c0-14.08-11.52-25.6-25.6-25.6z m-83.2 64c17.92 0 32 14.08 32 32S523.52 371.2 505.6 371.2 473.6 357.12 473.6 339.2s14.08-32 32-32z m0 102.4c17.92 0 32 14.08 32 32S523.52 473.6 505.6 473.6 473.6 459.52 473.6 441.6s14.08-32 32-32zM563.2 729.6h-115.2v-38.4h115.2v38.4z m0-64h-115.2v-38.4h115.2v38.4z m0-64h-115.2v-38.4h115.2v38.4zM832 307.2H665.6c-14.08 0-25.6 11.52-25.6 25.6v422.4c0 14.08 11.52 25.6 25.6 25.6h166.4c14.08 0 25.6-11.52 25.6-25.6V332.8c0-14.08-11.52-25.6-25.6-25.6z m-83.2 64c17.92 0 32 14.08 32 32S766.72 435.2 748.8 435.2 716.8 421.12 716.8 403.2s14.08-32 32-32z m0 102.4c17.92 0 32 14.08 32 32S766.72 537.6 748.8 537.6 716.8 523.52 716.8 505.6s14.08-32 32-32zM806.4 729.6h-115.2v-38.4h115.2v38.4z m0-64h-115.2v-38.4h115.2v38.4z" fill="#00A8A6" p-id="15148"></path></svg>