<?xml version="1.0" standalone="no"?><!DOCTYPE svg PUBLIC "-//W3C//DTD SVG 1.1//EN" "http://www.w3.org/Graphics/SVG/1.1/DTD/svg11.dtd"><svg t="1709711266438" class="icon" viewBox="0 0 1024 1024" version="1.1" xmlns="http://www.w3.org/2000/svg" p-id="13252" xmlns:xlink="http://www.w3.org/1999/xlink" width="16" height="16"><path d="M804.864 123.904a409.6 409.6 0 0 0-576-9.216l-9.728 9.216a431.616 431.616 0 0 0 0 600.064L512 1024l292.352-300.032a431.616 431.616 0 0 0 0.512-600.064zM385.536 573.44h-51.2V256h51.2z m256-122.368H563.2v122.368h-51.2V256h132.608c76.8 0 115.712 32.256 115.712 97.792s-38.912 97.28-116.736 97.28z" fill="#0098FE" p-id="13253"></path><path d="M640.512 299.008H563.2v107.52h76.288a83.456 83.456 0 0 0 51.2-12.8 51.2 51.2 0 0 0 16.384-41.472 48.128 48.128 0 0 0-16.896-40.96 83.456 83.456 0 0 0-49.664-12.288z" fill="#0098FE" p-id="13254"></path></svg>