<?xml version="1.0" standalone="no"?><!DOCTYPE svg PUBLIC "-//W3C//DTD SVG 1.1//EN" "http://www.w3.org/Graphics/SVG/1.1/DTD/svg11.dtd"><svg t="1709712102637" class="icon" viewBox="0 0 1820 1024" version="1.1" xmlns="http://www.w3.org/2000/svg" p-id="20374" xmlns:xlink="http://www.w3.org/1999/xlink" width="28.4375" height="16"><path d="M1006.819556 172.297481h-194.180741v679.632593h194.180741v-679.632593z m48.545185 0v679.632593h169.908148c13.406815 0 24.272593-10.865778 24.272592-24.272593v-631.087407c0-13.406815-10.865778-24.272593-24.272592-24.272593h-169.908148z m-291.271111 0h-169.908149c-13.406815 0-24.272593 10.865778-24.272592 24.272593v631.087407c0 13.397333 10.875259 24.272593 24.272592 24.272593h169.908149v-679.632593z m485.451851-48.545185c26.81363 0 48.545185 21.731556 48.545186 48.545185v679.632593c0 26.81363-21.731556 48.545185-48.545186 48.545185h-679.632592c-26.81363 0-48.545185-21.731556-48.545185-48.545185v-679.632593c0-26.81363 21.731556-48.545185 48.545185-48.545185h679.632592z m-582.542222 169.908148c-13.406815 0-24.272593-10.865778-24.272592-24.272592s10.865778-24.272593 24.272592-24.272593 24.272593 10.865778 24.272593 24.272593-10.865778 24.272593-24.272593 24.272592z m0 72.817778c-13.406815 0-24.272593-10.865778-24.272592-24.272592s10.865778-24.272593 24.272592-24.272593 24.272593 10.865778 24.272593 24.272593-10.865778 24.272593-24.272593 24.272592z m0 72.817778c-13.406815 0-24.272593-10.865778-24.272592-24.272593s10.865778-24.272593 24.272592-24.272592 24.272593 10.865778 24.272593 24.272592-10.865778 24.272593-24.272593 24.272593z m-24.272592 97.09037h48.545185c13.406815 0 24.272593 10.865778 24.272592 24.272593s-10.865778 24.272593-24.272592 24.272593h-48.545185c-13.406815 0-24.272593-10.865778-24.272593-24.272593s10.865778-24.272593 24.272593-24.272593z m0 194.180741h48.545185c13.406815 0 24.272593 10.865778 24.272592 24.272593s-10.865778 24.272593-24.272592 24.272592h-48.545185c-13.406815 0-24.272593-10.865778-24.272593-24.272592s10.865778-24.272593 24.272593-24.272593z m0-97.09037h48.545185c13.406815 0 24.272593 10.865778 24.272592 24.272592s-10.865778 24.272593-24.272592 24.272593h-48.545185c-13.406815 0-24.272593-10.865778-24.272593-24.272593s10.865778-24.272593 24.272593-24.272592z m242.725926-97.090371h48.545185c13.406815 0 24.272593 10.865778 24.272592 24.272593s-10.865778 24.272593-24.272592 24.272593h-48.545185c-13.406815 0-24.272593-10.865778-24.272593-24.272593s10.865778-24.272593 24.272593-24.272593z m0 194.180741h48.545185c13.406815 0 24.272593 10.865778 24.272592 24.272593s-10.865778 24.272593-24.272592 24.272592h-48.545185c-13.406815 0-24.272593-10.865778-24.272593-24.272592s10.865778-24.272593 24.272593-24.272593z m0-97.09037h48.545185c13.406815 0 24.272593 10.865778 24.272592 24.272592s-10.865778 24.272593-24.272592 24.272593h-48.545185c-13.406815 0-24.272593-10.865778-24.272593-24.272593s10.865778-24.272593 24.272593-24.272592z m242.725926-97.090371h48.545185c13.406815 0 24.272593 10.865778 24.272592 24.272593s-10.865778 24.272593-24.272592 24.272593h-48.545185c-13.406815 0-24.272593-10.865778-24.272593-24.272593s10.865778-24.272593 24.272593-24.272593z m0 194.180741h48.545185c13.406815 0 24.272593 10.865778 24.272592 24.272593s-10.865778 24.272593-24.272592 24.272592h-48.545185c-13.406815 0-24.272593-10.865778-24.272593-24.272592s10.865778-24.272593 24.272593-24.272593z m0-97.09037h48.545185c13.406815 0 24.272593 10.865778 24.272592 24.272592s-10.865778 24.272593-24.272592 24.272593h-48.545185c-13.406815 0-24.272593-10.865778-24.272593-24.272593s10.865778-24.272593 24.272593-24.272592z m-218.453334-339.816297c-8.675556 0.056889-16.715852-4.513185-21.105778-11.994074a24.263111 24.263111 0 0 1-0.161185-24.272592 24.278281 24.278281 0 0 1 20.944593-12.278519c13.406815-0.085333 24.348444 10.704593 24.433778 24.111408 0.094815 13.406815-10.704593 24.348444-24.111408 24.433777z m0 72.817778c-13.406815 0-24.272593-10.865778-24.272592-24.272592s10.865778-24.272593 24.272592-24.272593 24.272593 10.865778 24.272593 24.272593-10.865778 24.272593-24.272593 24.272592z m0 72.817778c-13.406815 0-24.272593-10.865778-24.272592-24.272593s10.865778-24.272593 24.272592-24.272592 24.272593 10.865778 24.272593 24.272592-10.865778 24.272593-24.272593 24.272593z m242.725926-145.635556c-8.675556 0.056889-16.715852-4.513185-21.105778-11.994074a24.263111 24.263111 0 0 1-0.161185-24.272592 24.278281 24.278281 0 0 1 20.944593-12.278519c13.406815-0.085333 24.348444 10.704593 24.433778 24.111408 0.094815 13.406815-10.704593 24.348444-24.111408 24.433777z m0 72.817778c-13.406815 0-24.272593-10.865778-24.272592-24.272592s10.865778-24.272593 24.272592-24.272593 24.272593 10.865778 24.272593 24.272593-10.865778 24.272593-24.272593 24.272592z m0 72.817778c-13.406815 0-24.272593-10.865778-24.272592-24.272593s10.865778-24.272593 24.272592-24.272592 24.272593 10.865778 24.272593 24.272592-10.865778 24.272593-24.272593 24.272593z m0 0" p-id="20375" fill="#13C2C2"></path></svg>