<?xml version="1.0" standalone="no"?><!DOCTYPE svg PUBLIC "-//W3C//DTD SVG 1.1//EN" "http://www.w3.org/Graphics/SVG/1.1/DTD/svg11.dtd"><svg t="1709712048587" class="icon" viewBox="0 0 1024 1024" version="1.1" xmlns="http://www.w3.org/2000/svg" p-id="19120" xmlns:xlink="http://www.w3.org/1999/xlink" width="16" height="16"><path d="M42.666667 512a469.333333 469.333333 0 1 0 938.666666 0 469.333333 469.333333 0 1 0-938.666666 0Z" fill="#FF6A00" p-id="19121"></path><path d="M574.890667 155.776c-149.632-30.848-299.626667 51.328-358.272 196.266667-58.666667 144.981333-9.664 312.384 117.056 399.893333L512.213333 896l181.610667-145.749333c86.656-61.504 138.346667-162.965333 138.197333-271.296 0.170667-157.013333-107.456-292.309333-257.109333-323.178667z m-164.416 70.656c99.2-42.325333 213.418667-19.008 289.408 59.093333 75.946667 78.122667 98.709333 195.626667 57.621333 297.728-41.088 102.101333-137.898667 168.682667-245.312 168.682667-146.474667-0.213333-265.194667-122.282667-265.493333-272.981333-0.085333-110.506667 64.554667-210.176 163.776-252.522667z m119.701333 19.157333a8.106667 8.106667 0 0 1 0 2.986667c-0.362667 14.570667-22.165333 35.306667-32.853333 33.258667-10.730667-2.048-3.84-24.469333-10.730667-28.970667-6.890667-4.48-34.858667 3.370667-49.941333 14.208-15.082667 10.837333-10.88 19.050667-5.269334 18.688 5.632-0.384 15.786667-10.453333 25.237334-12.714667 9.450667-2.24 14.890667 6.741333 14.890666 21.12 0 14.378667-23.594667 11.584-49.92 18.688-26.346667 7.104-42.133333 57.92-44.501333 64.64-2.346667 6.741333-15.786667 0.938667-18.154667-6.528-1.792-5.674667-7.338667-1.472-12.928 2.773334-1.792 1.365333-3.562667 2.709333-5.248 3.754666-6.890667 4.309333-7.445333 21.312-5.632 22.976 0.554667 0.512 1.813333 0.576 3.328 0.64 3.477333 0.192 8.32 0.426667 9.216 6.272 1.28 8.426667 3.989333 28.032-3.093333 29.909334-7.082667 1.856-18.88-21.674667-20.522667-28.970667-1.621333-7.274667-7.253333-32.32-9.984-44.650667 40.661333-72.746667 116.010667-117.589333 197.589334-117.525333 1.365333 0 2.730667 0 4.096 0.042667 4.757333 0.064 9.472 0.128 14.421333-0.597334z m173.44 109.653334c2.24 2.282667 4.245333 4.8 5.973333 7.488 9.109333 15.018667 15.850667 31.402667 19.989334 48.576 6.805333 22.144 10.346667 45.184 10.538666 68.394666a241.728 241.728 0 0 1-32.341333 120.149334c-11.989333 21.12-36.138667 36.245333-46.122667 25.024 9.493333-10.645333 7.594667-27.093333 5.973334-40.96-1.130667-9.749333-2.112-18.24 1.109333-22.570667a75.221333 75.221333 0 0 0 11.989333-45.013333c1.002667-20.885333-4.48-45.098667-26.474666-47.509334l-5.845334-0.149333h-4.906666c-23.253333 0.192-69.184-13.824-54.485334-32.512 17.301333-21.930667 15.36-43.456 13.845334-60.416-1.493333-16.704-2.624-29.013333 15.402666-33.002667 30.869333-6.165333 69.909333-1.685333 85.333334 12.522667z m-262.250667 130.048c10.794667 10.773333 32.170667 6.4 48 25.706666l5.034667 7.381334 1.941333 5.248c4.074667 20.138667-22.442667 52.48-42.709333 77.226666-9.728 11.861333-18.026667 21.973333-20.8 28.138667-4.736 10.517333-0.213333 22.890667 3.605333 33.365333 3.498667 9.6 6.4 17.621333 1.130667 21.184-5.845333 3.968-11.968-3.136-19.733333-12.138666a185.813333 185.813333 0 0 0-9.344-10.282667 95.210667 95.210667 0 0 1-18.133334-56.042667c1.984-16.832-22.890667-49.152-34.346666-59.797333-11.434667-10.666667-12.693333-85.568-5.44-93.44 25.066667-26.325333 83.349333 25.984 90.794666 33.472z" fill="#FFFFFF" p-id="19122"></path></svg>