<?xml version="1.0" standalone="no"?><!DOCTYPE svg PUBLIC "-//W3C//DTD SVG 1.1//EN" "http://www.w3.org/Graphics/SVG/1.1/DTD/svg11.dtd"><svg t="1709711241557" class="icon" viewBox="0 0 1024 1024" version="1.1" xmlns="http://www.w3.org/2000/svg" p-id="9558" xmlns:xlink="http://www.w3.org/1999/xlink" width="16" height="16"><path d="M848 792H136.1c-35.2 0-64-28.8-64-64v-83.4c0-35.2 28.8-64 64-64H848c35.2 0 64 28.8 64 64V728c0 35.2-28.8 64-64 64z" fill="#76FF9D" p-id="9559"></path><path d="M960.2 694.7c-6.6 0-12-5.4-12-12v-34c0-6.6 5.4-12 12-12s12 5.4 12 12v34c0 6.6-5.4 12-12 12z" fill="#333333" p-id="9560"></path><path d="M896.2 812h-768c-41.9 0-76-34.1-76-76V608c0-41.9 34.1-76 76-76h768c41.9 0 76 34.1 76 76v7c0 6.6-5.4 12-12 12s-12-5.4-12-12v-7c0-28.7-23.3-52-52-52h-768c-28.7 0-52 23.3-52 52v128c0 28.7 23.3 52 52 52h768c28.7 0 52-23.3 52-52v-11.3c0-6.6 5.4-12 12-12s12 5.4 12 12V736c0 41.9-34.1 76-76 76z" fill="#333333" p-id="9561"></path><path d="M192.7 547.2c-6.6 0-12-5.4-12-12V203.8c0-6.6 5.4-12 12-12s12 5.4 12 12v331.4c0 6.6-5.4 12-12 12zM512.3 547.2c-6.6 0-12-5.4-12-12V203.8c0-6.6 5.4-12 12-12s12 5.4 12 12v331.4c0 6.6-5.4 12-12 12zM832.2 552.9c-6.6 0-12-5.4-12-12V209.5c0-6.6 5.4-12 12-12s12 5.4 12 12v331.4c0 6.6-5.4 12-12 12zM192.7 729c-6.6 0-12-5.4-12-12V613c0-6.6 5.4-12 12-12s12 5.4 12 12v104c0 6.6-5.4 12-12 12zM256 729c-6.6 0-12-5.4-12-12V613c0-6.6 5.4-12 12-12s12 5.4 12 12v104c0 6.6-5.4 12-12 12zM319.3 729c-6.6 0-12-5.4-12-12V613c0-6.6 5.4-12 12-12s12 5.4 12 12v104c0 6.6-5.4 12-12 12z" fill="#333333" p-id="9562"></path></svg>