<?xml version="1.0" standalone="no"?><!DOCTYPE svg PUBLIC "-//W3C//DTD SVG 1.1//EN" "http://www.w3.org/Graphics/SVG/1.1/DTD/svg11.dtd"><svg t="1709711233038" class="icon" viewBox="0 0 1024 1024" version="1.1" xmlns="http://www.w3.org/2000/svg" p-id="8403" xmlns:xlink="http://www.w3.org/1999/xlink" width="16" height="16"><path d="M837.818 791.273c0 25.67-20.875 46.545-46.545 46.545H232.727c-25.67 0-46.545-20.875-46.545-46.545v-93.091h651.636v93.09zM248.576 226.025a46.778 46.778 0 0 1 46.057-39.843h434.734a46.778 46.778 0 0 1 46.057 39.843l61.905 425.611H186.671l61.905-425.611z m572.905-6.703a93.09 93.09 0 0 0-92.114-79.686H294.633a93.09 93.09 0 0 0-92.114 79.686l-62.883 432.314v139.637a93.09 93.09 0 0 0 93.091 93.09h558.546a93.09 93.09 0 0 0 93.09-93.09V651.636l-62.882-432.314z" fill="#21A3DD" p-id="8404"></path><path d="M256 744.727h46.545v46.546H256v-46.546z m93.09 0h46.546v46.546h-46.545v-46.546z m93.092 0h46.545v46.546h-46.545v-46.546z m93.09 0h46.546v46.546h-46.545v-46.546z m93.092 0h46.545v46.546h-46.545v-46.546z m93.09 0H768v46.546h-46.545v-46.546z m-63.767-363.683l58.531-58.228a4.655 4.655 0 0 0 0-6.586l-58.647-58.927a4.655 4.655 0 0 0-7.866 3.352v35.607h-69.818a23.273 23.273 0 0 0-19.387 10.356l-50.455 75.683-50.455-75.683a23.203 23.203 0 0 0-19.363-10.38h-69.818v-35.304a4.655 4.655 0 0 0-7.913-3.258l-58.6 58.554a4.655 4.655 0 0 0 0 6.586l58.6 58.577a4.655 4.655 0 0 0 7.913-3.258v-35.351h57.39l54.319 81.455-54.319 81.454h-80.663a23.273 23.273 0 0 0 0 46.546h93.09a23.25 23.25 0 0 0 19.387-10.357l50.455-75.683 50.456 75.683a23.303 23.303 0 0 0 19.363 10.357h93.09a23.273 23.273 0 1 0 0-46.546h-80.64l-54.295-81.454 54.295-81.455h57.368v35.025a4.655 4.655 0 0 0 8.006 3.259" fill="#21A3DD" p-id="8405"></path></svg>