<?xml version="1.0" standalone="no"?><!DOCTYPE svg PUBLIC "-//W3C//DTD SVG 1.1//EN" "http://www.w3.org/Graphics/SVG/1.1/DTD/svg11.dtd"><svg t="1706861450696" class="icon" viewBox="0 0 1024 1024" version="1.1" xmlns="http://www.w3.org/2000/svg" p-id="9294" xmlns:xlink="http://www.w3.org/1999/xlink" width="16" height="16"><path d="M464.969143 211.017143c36.571429 36.571429 17.188571 95.451429-17.773714 133.558857H699.245714c35.474286-1.682286 68.973714 16.384 87.186286 46.811429 18.285714 30.500571 18.285714 57.197714 0 87.698285-18.285714 30.500571-51.712 48.493714-87.186286 46.811429H559.469714l-49.005714 190.464c-17.188571 73.362286-61.659429 125.074286-136.996571 124.781714H169.691429A96.475429 96.475429 0 0 1 73.142857 743.862857V518.290286c1.901714-34.450286 16.237714-67.072 40.448-91.648L331.410286 208.457143a96.475429 96.475429 0 0 1 133.558857 2.56z m392.045714 39.131428a232.594286 232.594286 0 0 1 91.209143 184.832 232.594286 232.594286 0 0 1-90.916571 184.685715 41.691429 41.691429 0 1 1-50.907429-66.121143c36.571429-28.16 58.441143-71.533714 58.441143-118.491429 0-47.177143-21.942857-90.550857-58.587429-118.710857a41.691429 41.691429 0 1 1 50.834286-66.194286z" fill="#13C2C2" p-id="9295"></path></svg>